custom-analysis
version=1
nRows=4
nColumns=146
inDegrees=no

This file contains tibia displacement and acting force.

Units are S.I. units (seconds, meters, Newtons, ...)
Angles are in degrees.

endheader
time	APT	SIT	knee_angle	aACL_R_force	pACL_R_force	aPCL_R_force	pPCL_R_force	aMCL_R_force	mMCL_R_force	pMCL_R_force	aLCL_R_force	mLCL_R_force	pLCL_R_force	aPCL_L_force	pPCL_L_force	aMCL_L_force	aLCL_L_force	aACL_R_length	pACL_R_length	aPCL_R_length	pPCL_R_length	aMCL_R_length	mMCL_R_length	pMCL_R_length	aLCL_R_length	mLCL_R_length	pLCL_R_length	aPCL_L_length	pPCL_L_length	aMCL_L_length	aLCL_L_length	aACL_R_strain	pACL_R_strain	aPCL_R_strain	pPCL_R_strain	aMCL_R_strain	mMCL_R_strain	pMCL_R_strain	aLCL_R_strain	mLCL_R_strain	pLCL_R_strain	aPCL_L_strain	pPCL_L_strain	aMCL_L_strain	aLCL_L_strain	femur_lat_meniscii_l.femur_lat_l.force.X	femur_lat_meniscii_l.femur_lat_l.force.Y	femur_lat_meniscii_l.femur_lat_l.force.Z	femur_lat_meniscii_l.femur_lat_l.torque.X	femur_lat_meniscii_l.femur_lat_l.torque.Y	femur_lat_meniscii_l.femur_lat_l.torque.Z	femur_lat_meniscii_l.meniscus_lat_l.force.X	femur_lat_meniscii_l.meniscus_lat_l.force.Y	femur_lat_meniscii_l.meniscus_lat_l.force.Z	femur_lat_meniscii_l.meniscus_lat_l.torque.X	femur_lat_meniscii_l.meniscus_lat_l.torque.Y	femur_lat_meniscii_l.meniscus_lat_l.torque.Z	femur_med_meniscii_l.femur_med_l.force.X	femur_med_meniscii_l.femur_med_l.force.Y	femur_med_meniscii_l.femur_med_l.force.Z	femur_med_meniscii_l.femur_med_l.torque.X	femur_med_meniscii_l.femur_med_l.torque.Y	femur_med_meniscii_l.femur_med_l.torque.Z	femur_med_meniscii_l.meniscus_med_l.force.X	femur_med_meniscii_l.meniscus_med_l.force.Y	femur_med_meniscii_l.meniscus_med_l.force.Z	femur_med_meniscii_l.meniscus_med_l.torque.X	femur_med_meniscii_l.meniscus_med_l.torque.Y	femur_med_meniscii_l.meniscus_med_l.torque.Z	femur_lat_meniscii_r.femur_lat_r.force.X	femur_lat_meniscii_r.femur_lat_r.force.Y	femur_lat_meniscii_r.femur_lat_r.force.Z	femur_lat_meniscii_r.femur_lat_r.torque.X	femur_lat_meniscii_r.femur_lat_r.torque.Y	femur_lat_meniscii_r.femur_lat_r.torque.Z	femur_lat_meniscii_r.meniscus_lat_r.force.X	femur_lat_meniscii_r.meniscus_lat_r.force.Y	femur_lat_meniscii_r.meniscus_lat_r.force.Z	femur_lat_meniscii_r.meniscus_lat_r.torque.X	femur_lat_meniscii_r.meniscus_lat_r.torque.Y	femur_lat_meniscii_r.meniscus_lat_r.torque.Z	femur_med_meniscii_r.femur_med_r.force.X	femur_med_meniscii_r.femur_med_r.force.Y	femur_med_meniscii_r.femur_med_r.force.Z	femur_med_meniscii_r.femur_med_r.torque.X	femur_med_meniscii_r.femur_med_r.torque.Y	femur_med_meniscii_r.femur_med_r.torque.Z	femur_med_meniscii_r.meniscus_med_r.force.X	femur_med_meniscii_r.meniscus_med_r.force.Y	femur_med_meniscii_r.meniscus_med_r.force.Z	femur_med_meniscii_r.meniscus_med_r.torque.X	femur_med_meniscii_r.meniscus_med_r.torque.Y	femur_med_meniscii_r.meniscus_med_r.torque.Z	femur_med_tibia_l.tibia_upper_l.force.X	femur_med_tibia_l.tibia_upper_l.force.Y	femur_med_tibia_l.tibia_upper_l.force.Z	femur_med_tibia_l.tibia_upper_l.torque.X	femur_med_tibia_l.tibia_upper_l.torque.Y	femur_med_tibia_l.tibia_upper_l.torque.Z	femur_med_tibia_l.femur_med_l.force.X	femur_med_tibia_l.femur_med_l.force.Y	femur_med_tibia_l.femur_med_l.force.Z	femur_med_tibia_l.femur_med_l.torque.X	femur_med_tibia_l.femur_med_l.torque.Y	femur_med_tibia_l.femur_med_l.torque.Z	femur_lat_tibia_l.tibia_upper_l.force.X	femur_lat_tibia_l.tibia_upper_l.force.Y	femur_lat_tibia_l.tibia_upper_l.force.Z	femur_lat_tibia_l.tibia_upper_l.torque.X	femur_lat_tibia_l.tibia_upper_l.torque.Y	femur_lat_tibia_l.tibia_upper_l.torque.Z	femur_lat_tibia_l.femur_lat_l.force.X	femur_lat_tibia_l.femur_lat_l.force.Y	femur_lat_tibia_l.femur_lat_l.force.Z	femur_lat_tibia_l.femur_lat_l.torque.X	femur_lat_tibia_l.femur_lat_l.torque.Y	femur_lat_tibia_l.femur_lat_l.torque.Z	femur_med_tibia_r.tibia_upper_r.force.X	femur_med_tibia_r.tibia_upper_r.force.Y	femur_med_tibia_r.tibia_upper_r.force.Z	femur_med_tibia_r.tibia_upper_r.torque.X	femur_med_tibia_r.tibia_upper_r.torque.Y	femur_med_tibia_r.tibia_upper_r.torque.Z	femur_med_tibia_r.femur_med_r.force.X	femur_med_tibia_r.femur_med_r.force.Y	femur_med_tibia_r.femur_med_r.force.Z	femur_med_tibia_r.femur_med_r.torque.X	femur_med_tibia_r.femur_med_r.torque.Y	femur_med_tibia_r.femur_med_r.torque.Z	femur_lat_tibia_r.tibia_upper_r.force.X	femur_lat_tibia_r.tibia_upper_r.force.Y	femur_lat_tibia_r.tibia_upper_r.force.Z	femur_lat_tibia_r.tibia_upper_r.torque.X	femur_lat_tibia_r.tibia_upper_r.torque.Y	femur_lat_tibia_r.tibia_upper_r.torque.Z	femur_lat_tibia_r.femur_lat_r.force.X	femur_lat_tibia_r.femur_lat_r.force.Y	femur_lat_tibia_r.femur_lat_r.force.Z	femur_lat_tibia_r.femur_lat_r.torque.X	femur_lat_tibia_r.femur_lat_r.torque.Y	femur_lat_tibia_r.femur_lat_r.torque.Z	femur_lat_meniscii_force_r	femur_med_meniscii_force_r	femur_lat_tibia_force_r	femur_med_tibia_force_r
      0.21077928	      0.00484701	     -0.00018605	     60.00037120	     28.62636479	      3.40626191	    350.91562611	     84.29097868	      4.89999256	      0.69731790	     -0.15038952	      0.00000000	      0.00000000	      0.00000000	      0.00000000	      0.00000000	      0.00000001	      0.00000000	      0.03279371	      0.02518124	      0.03379261	      0.03077430	      0.06153560	      0.06037770	      0.05693164	      0.05120423	      0.04629891	      0.04140799	      0.01525851	      0.01651186	      0.06550154	      0.04489616	      0.05767395	      0.00489027	      0.08674317	      0.02966086	      0.02513202	      0.00977026	      0.00358971	     -0.08526623	     -0.17791090	     -0.20890613	      0.00000079	     -0.32847694	      0.00000060	     -0.00000086	      2.76307435	     50.99597937	     -9.56042239	      5.21997485	     -0.02578839	      1.48581788	     -2.76307435	    -50.99597937	      9.56042239	     -1.74637766	      0.02558040	     -0.48301696	     -3.31599387	     20.97615968	     -3.40468921	      0.94473225	     -0.02138609	     -1.00501789	      3.31599387	    -20.97615968	      3.40468921	      0.28075727	      0.00368718	     -0.29758878	    195.29793859	     60.06664920	     13.06960415	     -6.72817448	      4.81407617	     79.86699084	   -195.29793859	    -60.06664920	    -13.06960415	      1.97339992	     -6.26537481	     -2.14678563	    147.19685655	      6.71421763	    -13.16813101	      5.49692844	     -2.96990299	     59.91614900	   -147.19685655	     -6.71421763	     13.16813101	     -0.31217206	      2.41573846	     -2.24212830	      0.00000000	      0.00000000	      0.00000000	      0.00000000	      0.00000000	      0.00000000	      0.00000000	      0.00000000	      0.00000000	      0.00000000	      0.00000000	      0.00000000	      0.00000000	      0.00000000	      0.00000000	      0.00000000	      0.00000000	      0.00000000	      0.00000000	      0.00000000	      0.00000000	      0.00000000	      0.00000000	      0.00000000	   -131.00133087	    -52.76216864	     15.20131300	     -0.90951347	      1.93422858	     -1.10476490	    131.00133087	     52.76216864	    -15.20131300	      7.15867018	     -2.34578279	     53.53006221	    -17.89300549	    -11.14346003	     -5.51291551	      0.44077586	     -0.67106505	     -0.07399055	     17.89300549	     11.14346003	      5.51291551	     -2.52960109	      0.43691979	      7.32687690	    204.74399067	    147.93713182	     21.78826712	    142.04321542
      0.21294148	      0.00487144	     -0.00019050	     60.00037120	     29.00296556	      3.25084031	    349.98764774	     83.57157062	      5.00096771	      0.80475668	     -0.01188056	      0.00000000	      0.00000000	      0.00000000	      0.00000000	      0.00000000	      0.00000001	      0.00000000	      0.03281369	      0.02519815	      0.03378646	      0.03076695	      0.06153780	      0.06037806	      0.05693112	      0.05121383	      0.04630843	      0.04141576	      0.01525851	      0.01651186	      0.06550154	      0.04489616	      0.05831845	      0.00556481	      0.08654546	      0.02941488	      0.02516871	      0.00977630	      0.00358062	     -0.08509483	     -0.17774176	     -0.20875760	      0.00000079	     -0.32847694	      0.00000060	     -0.00000086	      2.76307435	     50.99597937	     -9.56042239	      5.21997485	     -0.02578839	      1.48581788	     -2.76307435	    -50.99597937	      9.56042239	     -1.74637766	      0.02558040	     -0.48301696	     -3.31599387	     20.97615968	     -3.40468921	      0.94473225	     -0.02138609	     -1.00501789	      3.31599387	    -20.97615968	      3.40468921	      0.28075727	      0.00368718	     -0.29758878	    193.40294780	     61.11201205	     14.23344057	     -7.23485467	      4.78664002	     79.07755546	   -193.40294780	    -61.11201205	    -14.23344057	      2.03078244	     -6.25315990	     -2.06842441	    147.95299842	      6.95112947	    -12.10185269	      5.06776672	     -2.97502460	     60.22581060	   -147.95299842	     -6.95112947	     12.10185269	     -0.29803211	      2.39235748	     -2.24738697	      0.00000000	      0.00000000	      0.00000000	      0.00000000	      0.00000000	      0.00000000	      0.00000000	      0.00000000	      0.00000000	      0.00000000	      0.00000000	      0.00000000	      0.00000000	      0.00000000	      0.00000000	      0.00000000	      0.00000000	      0.00000000	      0.00000000	      0.00000000	      0.00000000	      0.00000000	      0.00000000	      0.00000000	   -131.59023203	    -53.14392320	     14.55266246	     -0.90044359	      1.92272854	     -1.10091938	    131.59023203	     53.14392320	    -14.55266246	      6.89841150	     -2.35208369	     53.76869574	    -15.41985745	     -9.65971236	     -4.81748161	      0.38277948	     -0.58028878	     -0.06167351	     15.41985745	      9.65971236	      4.81748161	     -2.20872691	      0.37699099	      6.31382967	    203.32724624	    148.60976678	     18.82259747	    142.66059625
      0.21557064	      0.00490083	     -0.00019619	     60.00037120	     29.80746452	      3.50120615	    348.86930258	     82.46205294	      5.04598873	      0.83502551	      0.00485287	      0.00000000	      0.00000000	      0.00000000	      0.00000000	      0.00000000	      0.00000001	      0.00000000	      0.03283706	      0.02521767	      0.03377976	      0.03075876	      0.06154057	      0.06037863	      0.05693072	      0.05122646	      0.04632101	      0.04142626	      0.01525851	      0.01651186	      0.06550154	      0.04489616	      0.05907220	      0.00634396	      0.08633011	      0.02914108	      0.02521489	      0.00978588	      0.00357346	     -0.08486918	     -0.17751845	     -0.20855699	      0.00000079	     -0.32847694	      0.00000060	     -0.00000086	      2.76307435	     50.99597937	     -9.56042239	      5.21997485	     -0.02578839	      1.48581788	     -2.76307435	    -50.99597937	      9.56042239	     -1.74637766	      0.02558040	     -0.48301696	     -3.31599387	     20.97615968	     -3.40468921	      0.94473225	     -0.02138609	     -1.00501789	      3.31599387	    -20.97615968	      3.40468921	      0.28075727	      0.00368718	     -0.29758878	    193.58927538	     61.41682973	     13.89001363	     -7.10337344	      4.79459458	     79.15930362	   -193.58927538	    -61.41682973	    -13.89001363	      2.03433682	     -6.25245884	     -2.06445281	    148.72803728	      7.07848566	    -12.51140668	      5.23868787	     -2.99909459	     60.54581457	   -148.72803728	     -7.07848566	     12.51140668	     -0.30790006	      2.42302130	     -2.25751131	      0.00000000	      0.00000000	      0.00000000	      0.00000000	      0.00000000	      0.00000000	      0.00000000	      0.00000000	      0.00000000	      0.00000000	      0.00000000	      0.00000000	      0.00000000	      0.00000000	      0.00000000	      0.00000000	      0.00000000	      0.00000000	      0.00000000	      0.00000000	      0.00000000	      0.00000000	      0.00000000	      0.00000000	   -132.06504360	    -53.22531846	     14.67270101	     -0.90575335	      1.93783037	     -1.10354800	    132.06504360	     53.22531846	    -14.67270101	      6.95099350	     -2.36575986	     53.96281505	    -12.59052925	     -7.88024176	     -3.90801569	      0.31136919	     -0.47254392	     -0.05038724	     12.59052925	      7.88024176	      3.90801569	     -1.79252609	      0.30722771	      5.15560754	    203.57251041	    149.42111407	     15.35878327	    143.14118353
      0.21819980	      0.00492968	     -0.00020191	     60.00037120	     30.13737079	      3.18545240	    347.86987805	     81.63921835	      5.05075201	      0.85283794	      0.07222567	      0.00000000	      0.00000000	      0.00000000	      0.00000000	      0.00000000	      0.00000001	      0.00000000	      0.03286071	      0.02523770	      0.03377318	      0.03075064	      0.06154289	      0.06037876	      0.05692984	      0.05123955	      0.04633404	      0.04143723	      0.01525851	      0.01651186	      0.06550154	      0.04489616	      0.05983471	      0.00714310	      0.08611857	      0.02886943	      0.02525348	      0.00978806	      0.00355810	     -0.08463537	     -0.17728701	     -0.20834740	      0.00000079	     -0.32847694	      0.00000060	     -0.00000086	      2.76307435	     50.99597937	     -9.56042239	      5.21997485	     -0.02578839	      1.48581788	     -2.76307435	    -50.99597937	      9.56042239	     -1.74637766	      0.02558040	     -0.48301696	     -3.31599387	     20.97615968	     -3.40468921	      0.94473225	     -0.02138609	     -1.00501789	      3.31599387	    -20.97615968	      3.40468921	      0.28075727	      0.00368718	     -0.29758878	    193.11531733	     62.22433422	     16.44574805	     -8.16893740	      4.79292038	     78.95473185	   -193.11531733	    -62.22433422	    -16.44574805	      2.10487653	     -6.30644995	     -2.02047481	    150.39246488	      8.93612922	    -11.58361538	      4.90122017	     -3.02732556	     61.20448447	   -150.39246488	     -8.93612922	     11.58361538	     -0.32192016	      2.42117692	     -2.21809978	      0.00000000	      0.00000000	      0.00000000	      0.00000000	      0.00000000	      0.00000000	      0.00000000	      0.00000000	      0.00000000	      0.00000000	      0.00000000	      0.00000000	      0.00000000	      0.00000000	      0.00000000	      0.00000000	      0.00000000	      0.00000000	      0.00000000	      0.00000000	      0.00000000	      0.00000000	      0.00000000	      0.00000000	   -132.69984014	    -53.90834076	     13.64130525	     -0.89206535	      1.91521324	     -1.08975501	    132.69984014	     53.90834076	    -13.64130525	      6.53812222	     -2.36976356	     54.21713378	     -9.94306215	     -6.24716456	     -3.17249427	      0.24842491	     -0.37578347	     -0.03871927	      9.94306215	      6.24716456	      3.17249427	     -1.45183052	      0.24326212	      4.07132529	    203.55799220	    151.10237603	     12.16372763	    143.87995686
